{"title":"Time.Out.of.Mind.2015.WEBRiP.XViD.AC3.5.1.ReLeNTLesS","uid":12220412,"size":1567402700,"categoryP":"video","categoryS":"movies","magnet":"?xt=urn:btih:8d038139dcd2281787f830f21a4f17e71c2752ae&amp;dn=Time.Out.of.Mind.2015.WEBRiP.XViD.AC3.5.1.ReLeNTLesS&amp;tr=udp%3A%2F%2Ftracker.openbittorrent.com%3A80&amp;tr=udp%3A%2F%2Fopen.demonii.com%3A1337&amp;tr=udp%3A%2F%2Ftracker.coppersurfer.tk%3A6969&amp;tr=udp%3A%2F%2Fexodus.desync.com%3A6969","seeders":0,"leechers":1,"uploader":"TvTeam","files":4,"time":1439353431,"description":"------------------------------------------------------------------------\n\n &lt;a href=&quot; https://www.torrenting.com&quot; rel=&quot;nofollow&quot; target=&quot;_NEW&quot;&gt; https://www.torrenting.com&lt;/a&gt;\n\nSign up is OPEN - for time being. Come and have fun\n\n.......................................................................................................................P0STER\n[img]http://i.imgur.com/UoLMBfu.png[/img]\n\niMDB: http://www.imdb.com/title/tt3505712/\n\nGeneral\nComplete name               : Time.Out.of.Mind.2015.WEBRiP.XViD.AC3.5.1.ReLeNTLesS.avi\nFormat                      : AVI\nFormat/Info                 : Audio Video Interleave\nFile size                   : 1.44 GiB\nDuration                    : 2h 1mn\nOverall bit rate            : 1 701 Kbps\n\nVideo\nID                          : 0\nFormat                      : MPEG-4 Visual\nFormat profile              : Advanced Simple@L5\nFormat settings, BVOP       : 1\nFormat settings, QPel       : No\nFormat settings, GMC        : No warppoints\nFormat settings, Matrix     : Default (H.263)\nMuxing mode                 : Packed bitstream\nCodec ID                    : XVID\nCodec ID/Hint               : XviD\nDuration                    : 2h 1mn\nBit rate                    : 1 502 Kbps\nWidth                       : 720 pixels\nHeight                      : 304 pixels\nDisplay aspect ratio        : 2.35:1\nFrame rate                  : 23.976 fps\nColor space                 : YUV\nChroma subsampling          : 4:2:0\nBit depth                   : 8 bits\nScan type                   : Progressive\nCompression mode            : Lossy\nBits/(Pixel*Frame)          : 0.286\nStream size                 : 1.27 GiB (88%)\nWriting library             : XviD 1.2.1 (UTC 2008-12-04)\n\nAudio\nID                          : 1\nFormat                      : AC-3\nFormat/Info                 : Audio Coding 3\nMode extension              : CM (complete main)\nFormat settings, Endianness : Big\nCodec ID                    : 2000\nDuration                    : 2h 1mn\nBit rate mode               : Constant\nBit rate                    : 192 Kbps\nChannel(s)                  : 6 channels\nChannel positions           : Front: L C R, Side: L R, LFE\nSampling rate               : 48.0 KHz\nCompression mode            : Lossy\nStream size                 : 167 MiB (11%)\nAlignment                   : Aligned on interleaves\nInterleave, duration        : 64 ms (1.53 video frames)\nInterleave, preload duratio : 192 ms\nTitle                       : Time.Out.of.Mind.2015.ReLeNTLesS.audio.AC3.5.1. English_new\nSample Included             : Yes\nSource                      : PLAYNOW Thanks\n\nPL0T\nA homeless man tries to reconnect with his estranged daughter.\n\nCAST\nDirector: Oren Moverman\nWriters: Jeffrey Caine (story), Oren Moverman (screenplay)\nStars: Jena Malone, Richard Gere, Danielle Brooks \n\nN0TE\nResized,Sharpend, Degrained did audio and muxed.\n\nSCREENS\n[img]http://i.imgur.com/uxMPVzD.png[/img]\n[img]http://i.imgur.com/7yQ3T7r.png[/img]\n[img]http://i.imgur.com/GuxUoKJ.png[/img]\n[img]http://i.imgur.com/BBH8hFH.png[/img]\n[img]http://i.imgur.com/ZQaDqHT.png[/img]\n[img]http://i.imgur.com/k2cyQWP.png[/img]\n\nTRAiLER\n\nGREETZ\n\n\nHIVE-CM8, Blackjesus, M0RPH, M00SE, MiLLENiUM,\n\nMANiX, TiTAN, Anonymous, TuX, \n\nACAB, KingStoner, FooKas, 4PlayHD, \n\nGodFather, Cld.... \n\nKeep up the good work guyz","torrent":{"xt":"urn:btih:8d038139dcd2281787f830f21a4f17e71c2752ae","amp;dn":"Time.Out.of.Mind.2015.WEBRiP.XViD.AC3.5.1.ReLeNTLesS","amp;tr":["udp%3A%2F%2Ftracker.openbittorrent.com%3A80","udp%3A%2F%2Fopen.demonii.com%3A1337","udp%3A%2F%2Ftracker.coppersurfer.tk%3A6969","udp%3A%2F%2Fexodus.desync.com%3A6969"],"infoHash":"8d038139dcd2281787f830f21a4f17e71c2752ae","infoHashBuffer":{"type":"Buffer","data":[141,3,129,57,220,210,40,23,135,248,48,242,26,79,23,231,28,39,82,174]},"announce":[],"urlList":[]}}